<svg width="32" height="33" viewBox="0 0 32 33" fill="none" xmlns="http://www.w3.org/2000/svg">
<path d="M26.6668 23.4686V16.0714C26.6668 15.3589 26.6662 15.0025 26.5796 14.671C26.5028 14.3772 26.3768 14.0992 26.2063 13.8479C26.0138 13.5644 25.7462 13.3293 25.2101 12.8602L18.8101 7.26019C17.8146 6.38915 17.3168 5.95384 16.7567 5.78819C16.2631 5.64222 15.737 5.64222 15.2434 5.78819C14.6836 5.95372 14.1866 6.38861 13.1926 7.25834L6.79053 12.8602C6.25435 13.3293 5.98688 13.5644 5.79443 13.8479C5.62389 14.0992 5.49689 14.3772 5.42012 14.671C5.3335 15.0025 5.3335 15.3589 5.3335 16.0714V23.4686C5.3335 24.7112 5.3335 25.3322 5.53648 25.8222C5.80713 26.4756 6.32592 26.9954 6.97933 27.2661C7.46939 27.469 8.09064 27.469 9.33315 27.469C10.5757 27.469 11.1976 27.469 11.6877 27.2661C12.3411 26.9954 12.8597 26.4758 13.1304 25.8223C13.3334 25.3323 13.3335 24.711 13.3335 23.4685V22.1352C13.3335 20.6624 14.5274 19.4685 16.0002 19.4685C17.4729 19.4685 18.6668 20.6624 18.6668 22.1352V23.4685C18.6668 24.711 18.6668 25.3323 18.8698 25.8223C19.1405 26.4758 19.6593 26.9954 20.3127 27.2661C20.8027 27.469 21.424 27.469 22.6665 27.469C23.909 27.469 24.5309 27.469 25.021 27.2661C25.6744 26.9954 26.1931 26.4756 26.4637 25.8222C26.6667 25.3322 26.6668 24.7112 26.6668 23.4686Z" stroke="#1677FF" stroke-width="2.66667" stroke-linecap="round" stroke-linejoin="round"/>
</svg>
