<svg width="16" height="16" viewBox="0 0 16 16" fill="none" xmlns="http://www.w3.org/2000/svg">
<path d="M7.99984 10L9.99984 8M9.99984 8L7.99984 6M9.99984 8H2.6665M5.99984 4.83239V4.80013C5.99984 4.05339 5.99984 3.67974 6.14516 3.39453C6.27299 3.14365 6.47682 2.93982 6.7277 2.81199C7.01292 2.66666 7.38656 2.66666 8.1333 2.66666H11.2C11.9467 2.66666 12.3196 2.66666 12.6048 2.81199C12.8556 2.93982 13.0602 3.14365 13.188 3.39453C13.3332 3.67947 13.3332 4.05266 13.3332 4.79794V11.2024C13.3332 11.9477 13.3332 12.3203 13.188 12.6053C13.0602 12.8561 12.8556 13.0603 12.6048 13.1881C12.3198 13.3333 11.9472 13.3333 11.2019 13.3333H8.13111C7.38583 13.3333 7.01264 13.3333 6.7277 13.1881C6.47682 13.0603 6.27299 12.8559 6.14516 12.6051C5.99984 12.3198 5.99984 11.9467 5.99984 11.2V11.1667" stroke="white" stroke-linecap="round" stroke-linejoin="round"/>
</svg>
