<svg width="17" height="17" viewBox="0 0 17 17" fill="none" xmlns="http://www.w3.org/2000/svg">
<path d="M14.7125 13.8516L10.6547 9.79375C11.2844 8.97969 11.625 7.98438 11.625 6.9375C11.625 5.68438 11.1359 4.50937 10.2516 3.62344C9.36719 2.7375 8.18906 2.25 6.9375 2.25C5.68594 2.25 4.50781 2.73906 3.62344 3.62344C2.7375 4.50781 2.25 5.68438 2.25 6.9375C2.25 8.18906 2.73906 9.36719 3.62344 10.2516C4.50781 11.1375 5.68438 11.625 6.9375 11.625C7.98438 11.625 8.97813 11.2844 9.79219 10.6562L13.85 14.7125C13.8619 14.7244 13.876 14.7338 13.8916 14.7403C13.9071 14.7467 13.9238 14.7501 13.9406 14.7501C13.9575 14.7501 13.9741 14.7467 13.9897 14.7403C14.0052 14.7338 14.0194 14.7244 14.0312 14.7125L14.7125 14.0328C14.7244 14.0209 14.7338 14.0068 14.7403 13.9912C14.7467 13.9757 14.7501 13.959 14.7501 13.9422C14.7501 13.9254 14.7467 13.9087 14.7403 13.8931C14.7338 13.8776 14.7244 13.8635 14.7125 13.8516ZM9.4125 9.4125C8.75 10.0734 7.87187 10.4375 6.9375 10.4375C6.00312 10.4375 5.125 10.0734 4.4625 9.4125C3.80156 8.75 3.4375 7.87187 3.4375 6.9375C3.4375 6.00312 3.80156 5.12344 4.4625 4.4625C5.125 3.80156 6.00312 3.4375 6.9375 3.4375C7.87187 3.4375 8.75156 3.8 9.4125 4.4625C10.0734 5.125 10.4375 6.00312 10.4375 6.9375C10.4375 7.87187 10.0734 8.75156 9.4125 9.4125Z" fill="black" fill-opacity="0.88"/>
</svg>
