<svg width="32" height="32" viewBox="0 0 32 32" fill="none" xmlns="http://www.w3.org/2000/svg">
<path d="M18.1341 28.1011L25.4145 23.8978C26.1916 23.4491 26.5794 23.2247 26.8621 22.9108C27.1121 22.6331 27.3012 22.306 27.4167 21.9506C27.5469 21.5498 27.5469 21.102 27.5469 20.2088V11.7899C27.5469 10.8967 27.5469 10.4489 27.4167 10.0482C27.3012 9.69277 27.1121 9.36539 26.8621 9.08767C26.5807 8.77515 26.1937 8.55174 25.4232 8.10691L18.1328 3.89779C17.3556 3.44909 16.9678 3.22519 16.5547 3.13737C16.1892 3.05968 15.8112 3.05968 15.4457 3.13737C15.0326 3.22519 14.6435 3.44908 13.8663 3.89779L6.58458 8.10188C5.8083 8.55006 5.42047 8.77398 5.13802 9.08767C4.88796 9.36539 4.69912 9.69277 4.58364 10.0482C4.45312 10.4499 4.45312 10.8988 4.45312 11.7962V20.2028C4.45312 21.1003 4.45312 21.5489 4.58364 21.9506C4.69912 22.306 4.88796 22.6331 5.13802 22.9108C5.42063 23.2247 5.80876 23.4491 6.58594 23.8978L13.8663 28.1011C14.6434 28.5498 15.0326 28.7738 15.4457 28.8616C15.8112 28.9393 16.1892 28.9393 16.5547 28.8616C16.9678 28.7738 17.3569 28.5498 18.1341 28.1011Z" stroke="#C1C8DF" stroke-width="2.66667" stroke-linecap="round" stroke-linejoin="round"/>
<path d="M12 15.9994C12 18.2085 13.7909 19.9994 16 19.9994C18.2091 19.9994 20 18.2085 20 15.9994C20 13.7902 18.2091 11.9994 16 11.9994C13.7909 11.9994 12 13.7902 12 15.9994Z" stroke="#C1C8DF" stroke-width="2.66667" stroke-linecap="round" stroke-linejoin="round"/>
</svg>
