<svg width="22" height="19" viewBox="0 0 22 19" fill="none" xmlns="http://www.w3.org/2000/svg">
<path d="M4 7.52951V13.5407C4 13.8996 4 14.0791 4.05465 14.2375C4.10299 14.3777 4.18187 14.5053 4.28558 14.6112C4.40287 14.7309 4.5634 14.8112 4.88446 14.9717L10.2845 17.6717C10.5468 17.8029 10.678 17.8685 10.8156 17.8943C10.9375 17.9172 11.0625 17.9172 11.1844 17.8943C11.322 17.8685 11.4532 17.8029 11.7155 17.6717L17.1155 14.9717C17.4366 14.8112 17.5971 14.7309 17.7144 14.6112C17.8181 14.5053 17.897 14.3777 17.9453 14.2375C18 14.0791 18 13.8996 18 13.5407V7.52951M1 6.02951L10.6422 1.20839C10.7734 1.1428 10.839 1.11001 10.9078 1.0971C10.9687 1.08567 11.0313 1.08567 11.0922 1.0971C11.161 1.11001 11.2266 1.1428 11.3578 1.20839L21 6.02951L11.3578 10.8506C11.2266 10.9162 11.161 10.949 11.0922 10.9619C11.0313 10.9733 10.9687 10.9733 10.9078 10.9619C10.839 10.949 10.7734 10.9162 10.6422 10.8506L1 6.02951Z" stroke="black" stroke-opacity="0.29" stroke-width="2" stroke-linecap="round" stroke-linejoin="round"/>
</svg>
