<svg width="32" height="32" viewBox="0 0 32 32" fill="none" xmlns="http://www.w3.org/2000/svg">
<path d="M28 26.6659C28 24.3438 25.7738 22.3682 22.6667 21.6361M20 26.666C20 23.7205 16.4183 21.3327 12 21.3327C7.58172 21.3327 4 23.7205 4 26.666M20 17.3327C22.9455 17.3327 25.3333 14.9449 25.3333 11.9993C25.3333 9.05383 22.9455 6.66602 20 6.66602M12 17.3327C9.05448 17.3327 6.66667 14.9449 6.66667 11.9993C6.66667 9.05383 9.05448 6.66602 12 6.66602C14.9455 6.66602 17.3333 9.05383 17.3333 11.9993C17.3333 14.9449 14.9455 17.3327 12 17.3327Z" stroke="#C1C8DF" stroke-width="2.66667" stroke-linecap="round" stroke-linejoin="round"/>
</svg>
